<?xml version="1.0" encoding="UTF-8" standalone="no"?>
<!-- Generator: Adobe Illustrator 16.0.0, SVG Export Plug-In . SVG Version: 6.00 Build 0)  -->

<svg
   version="1.1"
   id="Vrstva_1"
   x="0px"
   y="0px"
   width="973.1936"
   height="280.60901"
   viewBox="0 0 973.19362 280.60901"
   enable-background="new 0 0 1604.402 280.607"
   xml:space="preserve"
   sodipodi:docname="eshop_logo.svg"
   inkscape:version="1.1 (c68e22c387, 2021-05-23)"
   xmlns:inkscape="http://www.inkscape.org/namespaces/inkscape"
   xmlns:sodipodi="http://sodipodi.sourceforge.net/DTD/sodipodi-0.dtd"
   xmlns="http://www.w3.org/2000/svg"
   xmlns:svg="http://www.w3.org/2000/svg"><defs
   id="defs39"><rect
     x="326.75217"
     y="-236.56857"
     width="1029.9229"
     height="241.7966"
     id="rect8854" /><rect
     x="331.98019"
     y="-227.41951"
     width="1280.8685"
     height="222.19147"
     id="rect3106" /><rect
     x="326.75217"
     y="-236.56857"
     width="1029.9229"
     height="241.7966"
     id="rect8854-0" /></defs><sodipodi:namedview
   id="namedview37"
   pagecolor="#ffffff"
   bordercolor="#666666"
   borderopacity="1.0"
   inkscape:pageshadow="2"
   inkscape:pageopacity="0.0"
   inkscape:pagecheckerboard="0"
   showgrid="false"
   inkscape:zoom="0.76510587"
   inkscape:cx="665.26741"
   inkscape:cy="194.74429"
   inkscape:window-width="2400"
   inkscape:window-height="1271"
   inkscape:window-x="-9"
   inkscape:window-y="-4"
   inkscape:window-maximized="1"
   inkscape:current-layer="Vrstva_1"
   fit-margin-top="0"
   fit-margin-left="0"
   fit-margin-right="0"
   fit-margin-bottom="0" />
<g
   id="g22">
	
	
	
	
	
	
	
	
	
	<path
   fill="#00386b"
   d="m 91.596,15.995 h 78.512 c 50.588,0 91.596,41.01 91.596,91.597 v 81.419 c 0,50.59 -41.008,91.598 -91.596,91.598 H 91.596 C 41.01,280.607 0,239.599 0,189.01 V 107.591 C 0,57.004 41.01,15.995 91.596,15.995 Z"
   id="path20" />
</g>
<g
   aria-label="eShop"
   transform="translate(7.8420535,273.16481)"
   id="text8852"
   style="font-size:200px;line-height:1.25;white-space:pre;shape-inside:url(#rect8854)"><path
     d="m 444.35195,-111.7023 q 0,4.8 -0.6,10 h -77.4 q 0.8,10.400004 6.6,16.000004 6,5.4 14.6,5.4 12.8,0 17.8,-10.8 h 36.4 q -2.8,11 -10.2,19.8 -7.2,8.8 -18.2,13.8 -11,5 -24.6,5 -16.4,0 -29.2,-7 -12.8,-7 -20,-20 -7.2,-13 -7.2,-30.400004 0,-17.4 7,-30.4 7.2,-13 20,-20 12.8,-7 29.4,-7 16.2,0 28.8,6.8 12.6,6.8 19.6,19.4 7.2,12.6 7.2,29.4 z m -35,-9 q 0,-8.8 -6,-14 -6,-5.2 -15,-5.2 -8.6,0 -14.6,5 -5.8,5 -7.2,14.2 z"
     style="font-weight:bold;font-family:Poppins;-inkscape-font-specification:'Poppins Bold';fill:#ef6534;fill-opacity:1"
     id="path34625" /><path
     d="m 513.1518,-52.702296 q -15.4,0 -27.6,-5 -12.2,-5 -19.6,-14.8 -7.2,-9.8 -7.6,-23.6 h 36.4 q 0.8,7.8 5.4,12 4.6,4 12,4 7.6,0 12,-3.4 4.4,-3.6 4.4,-9.8 0,-5.2 -3.6,-8.600004 -3.4,-3.4 -8.6,-5.6 -5,-2.2 -14.4,-5 -13.6,-4.2 -22.2,-8.4 -8.6,-4.2 -14.8,-12.4 -6.2,-8.2 -6.2,-21.4 0,-19.6 14.2,-30.6 14.2,-11.2 37,-11.2 23.2,0 37.4,11.2 14.2,11 15.2,30.8 h -37 q -0.4,-6.8 -5,-10.6 -4.6,-4 -11.8,-4 -6.2,0 -10,3.4 -3.8,3.2 -3.8,9.4 0,6.8 6.4,10.6 6.4,3.8 20,8.2 13.6,4.6 22,8.8 8.6,4.2 14.8,12.2 6.2,8 6.2,20.600004 0,12 -6.2,21.8 -6,9.8 -17.6,15.6 -11.6,5.8 -27.4,5.8 z"
     style="font-weight:bold;font-family:Poppins;-inkscape-font-specification:'Poppins Bold';fill:#00386b;fill-opacity:1"
     id="path34627" /><path
     d="m 653.95175,-166.9023 q 19.2,0 30.8,12.8 11.6,12.6 11.6,34.8 v 65.200004 h -34 V -114.7023 q 0,-11.2 -5.8,-17.4 -5.8,-6.2 -15.6,-6.2 -9.8,0 -15.6,6.2 -5.8,6.2 -5.8,17.4 v 60.600004 h -34.2 V -202.1023 h 34.2 v 51.4 q 5.2,-7.4 14.2,-11.8 9,-4.4 20.2,-4.4 z"
     style="font-weight:bold;font-family:Poppins;-inkscape-font-specification:'Poppins Bold';fill:#00386b;fill-opacity:1"
     id="path34629" /><path
     d="m 770.95171,-52.502296 q -16.4,0 -29.6,-7 -13,-7 -20.6,-20 -7.4,-13 -7.4,-30.400004 0,-17.2 7.6,-30.2 7.6,-13.2 20.8,-20.2 13.2,-7 29.6,-7 16.4,0 29.6,7 13.2,7 20.8,20.2 7.6,13 7.6,30.2 0,17.200004 -7.8,30.400004 -7.6,13 -21,20 -13.2,7 -29.6,7 z m 0,-29.6 q 9.8,0 16.6,-7.2 7,-7.2 7,-20.600004 0,-13.4 -6.8,-20.6 -6.6,-7.2 -16.4,-7.2 -10,0 -16.6,7.2 -6.6,7 -6.6,20.6 0,13.400004 6.4,20.600004 6.6,7.2 16.4,7.2 z"
     style="font-weight:bold;font-family:Poppins;-inkscape-font-specification:'Poppins Bold';fill:#00386b;fill-opacity:1"
     id="path34631" /><path
     d="m 881.75155,-149.9023 q 5,-7.8 13.8,-12.6 8.8,-4.8 20.6,-4.8 13.8,0 25,7 11.2,7 17.6,20 6.6,13 6.6,30.2 0,17.200004 -6.6,30.400004 -6.4,13 -17.6,20.2 -11.2,7 -25,7 -11.6,0 -20.6,-4.8 -8.8,-4.8 -13.8,-12.4 v 68.79999997 h -34.2 V -165.7023 h 34.2 z m 48.8,39.8 q 0,-12.8 -7.2,-20 -7,-7.4 -17.4,-7.4 -10.2,0 -17.4,7.4 -7,7.4 -7,20.2 0,12.800004 7,20.200004 7.2,7.4 17.4,7.4 10.2,0 17.4,-7.4 7.2,-7.6 7.2,-20.400004 z"
     style="font-weight:bold;font-family:Poppins;-inkscape-font-specification:'Poppins Bold';fill:#00386b;fill-opacity:1"
     id="path34633" /></g><g
   id="g34">
	
	
	
	<path
   fill="#ef6534"
   d="m 130.85,41.875 c 0,0 9.232,10e-4 19.371,2.413 5.9,-8.114 13.664,-21.433 21.34,-30.803 C 159.93,0 130.85,0 130.85,0 c 0,0 -29.078,0 -40.709,13.485 7.678,9.37 15.441,22.688 21.34,30.802 10.138,-2.411 19.369,-2.412 19.369,-2.412 z"
   id="path30" />
	<path
   fill="#ef6534"
   d="m 146.596,60.894 c -8.613,-1.642 -15.746,-1.645 -15.746,-1.645 0,0 -7.133,0.005 -15.744,1.646 l -24.965,137.481 40.709,51.697 40.711,-51.697 z"
   id="path32" />
<text
   xml:space="preserve"
   id="text3104"
   style="font-style:normal;font-variant:normal;font-weight:normal;font-stretch:normal;font-size:40px;line-height:1.25;font-family:Poppins;-inkscape-font-specification:Poppins;white-space:pre;shape-inside:url(#rect3106);fill:#000000;fill-opacity:1;stroke:none" /></g>
</svg>
